<?xml version="1.0" encoding="UTF-8"?>
<svg version="1.1" xmlns="http://www.w3.org/2000/svg" width="176" height="147">
<path d="M0 0 C3.93724756 0.54188599 6.05766072 1.57806837 9.125 4.0625 C17.84488468 10.39479721 28.3859359 14.06511064 38.50390625 17.59375 C46.13402337 20.26332914 52.44967653 22.82891667 58 29 C57.25 33.75 57.25 33.75 55 36 C54.01 36 53.02 36 52 36 C51.55011719 35.22527344 51.10023437 34.45054688 50.63671875 33.65234375 C48.64944334 30.43191415 47.31229946 29.88035552 43.8125 28.5625 C42.20761719 27.93988281 42.20761719 27.93988281 40.5703125 27.3046875 C38.10945293 26.40542372 35.64665779 25.51485079 33.1796875 24.6328125 C31.84834831 24.15272998 30.51762634 23.67093268 29.1875 23.1875 C28.18940308 22.82483032 28.18940308 22.82483032 27.17114258 22.45483398 C19.74647382 19.66868983 12.88864932 15.89960896 6 12 C6 14.79843183 6.49029575 16.4848087 8.47412109 18.48999023 C13.74770173 22.61746029 19.53594132 25.35096606 25.625 28.0625 C41.18658633 34.99946067 41.18658633 34.99946067 44 42 C44.19189453 44.12792969 44.19189453 44.12792969 44.1328125 46.421875 C44.10015263 57.95516316 45.46459738 65.98700701 51.3828125 75.9453125 C52.18332031 77.45738281 52.18332031 77.45738281 53 79 C52.505 80.485 52.505 80.485 52 82 C47.4191093 79.95495951 43.7972342 77.99491482 40.125 74.5625 C37.21817002 71.86697201 34.55323797 70.18165044 30.9375 68.5625 C24.28776987 65.43201166 19.80107748 60.74619776 17.25 53.8125 C17.03988281 53.15121094 16.82976563 52.48992187 16.61328125 51.80859375 C15.76888202 49.31842277 14.35767214 47.24311049 13 45 C12.71125 44.030625 12.4225 43.06125 12.125 42.0625 C11.12368461 38.80679549 11.12368461 38.80679549 8.5 36 C5.90230795 32.88276954 5.2435851 30.79620716 4 27 C2.98248139 25.07040511 1.94007546 23.15375808 0.875 21.25 C-2.55259265 14.52021444 -3.30771625 9.08661327 -1 1.875 C-0.67 1.25625 -0.34 0.6375 0 0 Z M13 28 C14.70397799 33.40352378 17.21412878 34.76118679 21.98828125 37.4375 C29.84661031 41.54386139 29.84661031 41.54386139 38 45 C38.66 44.67 39.32 44.34 40 44 C35.4501164 37.92605408 31.15035952 35.08206372 24.25 32.0625 C23.38761719 31.66482422 22.52523438 31.26714844 21.63671875 30.85742188 C17.47703757 28.77488486 17.47703757 28.77488486 13 28 Z M21 42 C22.3340957 46.38239258 23.85743447 47.99673928 27.8125 50.25 C28.66457031 50.75015625 29.51664063 51.2503125 30.39453125 51.765625 C32.96201035 52.98200191 35.20163396 53.5779843 38 54 C38.33 52.68 38.66 51.36 39 50 C36.3773768 48.66180502 33.75213401 47.3292849 31.125 46 C30.37863281 45.6184375 29.63226563 45.236875 28.86328125 44.84375 C28.14785156 44.4828125 27.43242188 44.121875 26.6953125 43.75 C26.03547363 43.41484375 25.37563477 43.0796875 24.69580078 42.734375 C23.0021145 41.86753587 23.0021145 41.86753587 21 42 Z M27 55 C28.04275251 58.2441189 29.61240491 59.60194664 32.4375 61.3125 C35.85303278 63.43338094 35.85303278 63.43338094 39 62 C38.33300635 58.90050335 38.33300635 58.90050335 36.00390625 57.83203125 C35.19824219 57.49558594 34.39257812 57.15914062 33.5625 56.8125 C32.75941406 56.46832031 31.95632812 56.12414062 31.12890625 55.76953125 C29.06380415 54.88668624 29.06380415 54.88668624 27 55 Z " fill="#000000" transform="translate(9,24)"/>
<path d="M0 0 C2.56320527 4.80600988 2.66210957 9.69494925 2 15 C1.24714295 17.08765225 0.31189787 18.87604313 -0.796875 20.796875 C-2.26751812 23.48987085 -3.32499801 26.26629237 -4.4375 29.125 C-5.84703719 32.58595592 -7.10430053 35.47950148 -9.625 38.25 C-12.59303315 41.68666997 -13.5063773 44.73250657 -15 49 C-15.66 49.66 -16.32 50.32 -17 51 C-17.43676874 52.38357067 -17.82708052 53.78210592 -18.1875 55.1875 C-20.29025959 61.61947051 -23.89501632 65.34088097 -29.84375 68.51953125 C-31.91070779 69.50864363 -33.98372603 70.48518732 -36.0625 71.44921875 C-39.66690966 73.35207864 -42.3353272 75.69553293 -45.18359375 78.58203125 C-47.40702551 80.31774249 -49.23414979 80.63469903 -52 81 C-51.09124713 76.45623567 -49.0390005 72.34265207 -47.171875 68.1328125 C-45.16231341 63.54234338 -43.81059245 59.89962937 -44.078125 54.8828125 C-44.11679688 53.72458984 -44.11679688 53.72458984 -44.15625 52.54296875 C-44.21847406 50.93810664 -44.29646677 49.33377422 -44.390625 47.73046875 C-44.5039494 43.47372105 -44.26716231 41.43679741 -41.98828125 37.7109375 C-38.80205039 34.45272684 -34.98921451 32.4962216 -30.9375 30.5 C-30.18960205 30.11618164 -29.4417041 29.73236328 -28.67114258 29.33691406 C-25.25860695 27.59356538 -21.8224658 25.90603643 -18.359375 24.265625 C-17.31265625 23.76546875 -16.2659375 23.2653125 -15.1875 22.75 C-14.27355469 22.33234375 -13.35960937 21.9146875 -12.41796875 21.484375 C-9.51433251 19.70185195 -7.88299229 17.82668307 -6 15 C-6 14.01 -6 13.02 -6 12 C-6.97195312 12.556875 -7.94390625 13.11375 -8.9453125 13.6875 C-18.22152735 18.86455048 -27.54155014 22.91327668 -37.59814453 26.34765625 C-44.1709474 28.60241186 -49.18561081 30.82898939 -54 36 C-56.0625 34.25 -56.0625 34.25 -58 32 C-57.56069429 27.81327553 -55.43857501 26.04476672 -52.30517578 23.50341797 C-47.7235628 20.51532512 -42.5664571 18.8814223 -37.4375 17.0625 C-21.18372934 11.50405836 -21.18372934 11.50405836 -6.890625 2.30078125 C-4 0 -4 0 0 0 Z M-24.3125 32.1875 C-25.16779297 32.57486328 -26.02308594 32.96222656 -26.90429688 33.36132812 C-31.82336285 35.66654495 -35.53631665 37.77582729 -39 42 C-39.33 42.99 -39.66 43.98 -40 45 C-35.05922268 43.49225105 -30.55047441 41.47460496 -25.9375 39.1875 C-25.24333984 38.85685547 -24.54917969 38.52621094 -23.83398438 38.18554688 C-19.4772929 36.02995689 -16.19592442 33.76907266 -13 30 C-13 29.34 -13 28.68 -13 28 C-16.99454712 28 -20.75127121 30.51676739 -24.3125 32.1875 Z M-26.6953125 43.75 C-27.76845703 44.29140625 -27.76845703 44.29140625 -28.86328125 44.84375 C-29.98283203 45.41609375 -29.98283203 45.41609375 -31.125 46 C-31.87910156 46.3815625 -32.63320312 46.763125 -33.41015625 47.15625 C-35.27524766 48.10060008 -37.13786055 49.04984228 -39 50 C-39 51.32 -39 52.64 -39 54 C-32.93159359 53.68061019 -27.65197805 50.78182388 -23 47 C-21.67621572 44.41372131 -21.67621572 44.41372131 -21 42 C-23.40059817 42 -24.56072417 42.66576466 -26.6953125 43.75 Z M-33.625 57 C-34.85089844 57.556875 -34.85089844 57.556875 -36.1015625 58.125 C-36.72804687 58.41375 -37.35453125 58.7025 -38 59 C-38 60.32 -38 61.64 -38 63 C-33.51400257 61.74809374 -30.40652872 60.20614467 -27 57 C-27 56.34 -27 55.68 -27 55 C-29.60526888 55 -31.26036729 55.91902505 -33.625 57 Z " fill="#000000" transform="translate(170,24)"/>
<path d="M0 0 C7.26932944 4.72751999 11.97512656 11.74017783 14.640625 19.98046875 C16.52287306 30.55788446 14.29663452 39.33935773 8.4375 48.1875 C4.09005464 53.67196953 -2.39032574 57.79677525 -9 60 C-20.44367368 61.20274628 -31.52195988 61.2426533 -41 54 C-48.28518667 47.55912304 -52.62154307 40.27535079 -53.9375 30.625 C-54.41791808 22.03752678 -52.25649731 14.46733011 -46.71875 7.84375 C-33.88824733 -5.91988013 -16.88829658 -9.64694848 0 0 Z M-40 12 C-45.45046929 19.57009623 -45.70341379 25.8250375 -45 35 C-43.32165657 41.71337373 -38.5460595 46.14630424 -33 50 C-26.82849412 53.62575971 -19.98814124 53.82863335 -13 53 C-6.63226096 51.19175655 -0.31215695 47.77948733 3.21875 42.0078125 C6.90629158 34.81710642 8.25167337 28.37342581 6.38671875 20.3671875 C3.64511123 12.46845924 -1.15481508 8.43266801 -8.0625 4.0625 C-19.85058654 -0.28333836 -32.0163984 2.68579813 -40 12 Z " fill="#000000" transform="translate(109,54)"/>
<path d="M0 0 C0.33 -0.33 0.66 -0.66 1 -1 C8.46470301 -1.7109241 13.74499584 -0.19759259 20 4 C20.66 4.99 21.32 5.98 22 7 C20.28432208 8.71567792 18.02627265 8.13015825 15.6875 8.1328125 C14.61242187 8.13410156 13.53734375 8.13539062 12.4296875 8.13671875 C11.29789063 8.13285156 10.16609375 8.12898438 9 8.125 C7.86820313 8.12886719 6.73640625 8.13273437 5.5703125 8.13671875 C4.49523437 8.13542969 3.42015625 8.13414063 2.3125 8.1328125 C0.82169922 8.13112061 0.82169922 8.13112061 -0.69921875 8.12939453 C-3 8 -3 8 -4 7 C-4.62648438 8.07121094 -5.25296875 9.14242187 -5.8984375 10.24609375 C-6.72368624 11.6433899 -7.54922196 13.04051659 -8.375 14.4375 C-8.7875 15.14455078 -9.2 15.85160156 -9.625 16.58007812 C-10.02460937 17.25361328 -10.42421875 17.92714844 -10.8359375 18.62109375 C-11.20251465 19.2442749 -11.5690918 19.86745605 -11.94677734 20.50952148 C-13 22 -13 22 -15 23 C-14.13375 24.37285156 -14.13375 24.37285156 -13.25 25.7734375 C-12.4997659 26.97381205 -11.74977867 28.17434092 -11 29.375 C-10.6184375 29.97828125 -10.236875 30.5815625 -9.84375 31.203125 C-7 35.7734375 -7 35.7734375 -7 38 C-10.465 38.495 -10.465 38.495 -14 39 C-14.9841125 37.73299277 -15.96211497 36.4612381 -16.9375 35.1875 C-17.48277344 34.47980469 -18.02804688 33.77210937 -18.58984375 33.04296875 C-20.95024537 29.62332873 -21.11492881 26.84951868 -21.0625 22.8125 C-21.05347656 21.91144531 -21.04445313 21.01039062 -21.03515625 20.08203125 C-21.02355469 19.39496094 -21.01195313 18.70789063 -21 18 C-20.34 17.67 -19.68 17.34 -19 17 C-19.21914062 16.4225 -19.43828125 15.845 -19.6640625 15.25 C-20 13 -20 13 -18.9609375 11 C-8.15875486 -2.62245692 -8.15875486 -2.62245692 0 0 Z M-3 3 C-2 5 -2 5 -2 5 Z M-18 18 C-17 20 -17 20 -17 20 Z " fill="#0E0E0E" transform="translate(86,59)"/>
<path d="M0 0 C3.70588838 2.93915285 4.88660228 6.974052 5.5625 11.5 C5.77399258 14.83100812 5.70676601 17.25788752 4.8125 20.4375 C0.07650182 18.94935378 -1.60000461 15.04683649 -3.9375 11 C-4.34871094 10.31873047 -4.75992188 9.63746094 -5.18359375 8.93554688 C-8.1875 3.84088196 -8.1875 3.84088196 -8.1875 0.4375 C-2.93817024 -0.75552949 -2.93817024 -0.75552949 0 0 Z " fill="#101010" transform="translate(109.1875,67.5625)"/>
<path d="M0 0 C3 1 3 1 5 4 C4.89046476 8.05280395 3.19421717 10.57838069 0.53125 13.57421875 C-2.79491832 16.67128874 -6.36035496 19 -11 19 C-9.47730437 14.75877447 -7.32369719 11.04913327 -4.9375 7.25 C-4.57333984 6.66089844 -4.20917969 6.07179688 -3.83398438 5.46484375 C-1.15223689 1.15223689 -1.15223689 1.15223689 0 0 Z " fill="#101010" transform="translate(107,85)"/>
<path d="M0 0 C7.59 0 15.18 0 23 0 C21 5 21 5 20 7 C13.01162192 7.4624662 6.7134643 7.56771612 1 3 C0.67 2.01 0.34 1.02 0 0 Z " fill="#111111" transform="translate(74,98)"/>
</svg>
